<svg width="88" height="37" viewBox="0 0 88 37" fill="none" xmlns="http://www.w3.org/2000/svg">
  <path d="M0.68 29H16.8V27.16H2.92V0.399999H0.68V29ZM29.465 27.52C24.905 27.52 21.545 24.08 21.545 18.72V18.4C21.545 12.96 24.985 9.56 29.465 9.56C33.905 9.56 37.345 12.88 37.345 18.4V18.72C37.345 24.12 33.945 27.52 29.465 27.52ZM29.425 29.32C35.065 29.32 39.545 25 39.545 18.68V18.36C39.545 12 35.105 7.76 29.465 7.76C23.865 7.76 19.345 12.12 19.345 18.4V18.72C19.345 24.88 23.745 29.32 29.425 29.32ZM52.7778 36.52C58.3778 36.52 62.4178 33.76 62.4578 27.6V8.08H60.3378V12.6C59.1378 10.04 56.8178 7.76 52.6978 7.76C47.1778 7.76 42.9778 12.08 42.9778 18.04V18.32C42.9778 24.4 47.0978 28.32 52.4178 28.32C56.2978 28.32 59.2178 25.76 60.3378 23.24V27.52C60.3378 32.68 57.2178 34.72 52.7378 34.72C48.3778 34.72 46.1378 32.88 45.5778 30.2H43.4178C43.9378 33.56 46.7378 36.52 52.7778 36.52ZM52.6178 26.52C48.4578 26.52 45.1778 23.48 45.1778 18.28V17.96C45.1778 12.76 48.4178 9.56 52.8978 9.56C57.2578 9.56 60.3778 12.6 60.3778 17.88V18.2C60.3778 23.44 56.8578 26.52 52.6178 26.52ZM77.59 27.52C73.03 27.52 69.67 24.08 69.67 18.72V18.4C69.67 12.96 73.11 9.56 77.59 9.56C82.03 9.56 85.47 12.88 85.47 18.4V18.72C85.47 24.12 82.07 27.52 77.59 27.52ZM77.55 29.32C83.19 29.32 87.67 25 87.67 18.68V18.36C87.67 12 83.23 7.76 77.59 7.76C71.99 7.76 67.47 12.12 67.47 18.4V18.72C67.47 24.88 71.87 29.32 77.55 29.32Z" fill="black"/>
</svg>
