<svg xmlns="http://www.w3.org/2000/svg" fill="none" viewBox="0 0 48 32">
  <path fill="#00C" d="M44 0H4a4 4 0 00-4 4v24a4 4 0 004 4h40a4 4 0 004-4V4a4 4 0 00-4-4z"/>
  <path fill="#fff" d="M24 26a10 10 0 110-20 10 10 0 010 20zm4-4.2c-.7 1.1-1.4 2.2-2.4 3a9 9 0 004.4-2c-.5-.5-1.2-.8-2-1zm-10 1a9 9 0 004.4 2c-1-.8-1.7-1.9-2.3-3-.9.2-1.6.5-2 1zm6.5-1.5v3.2c1-.8 1.8-1.8 2.4-3l-2.4-.2zm-3.4.2a9.5 9.5 0 002.4 3v-3.2c-.9 0-1.7 0-2.4.2zm7.2-.6c1 .2 1.8.6 2.4 1.1a9 9 0 002.3-5.5h-3.8c0 1.5-.3 3-.9 4.4zM15 16.5a9 9 0 002.3 5.5c.6-.5 1.4-.9 2.4-1.1-.6-1.4-.9-2.9-1-4.4H15zm9.5 3.8c1 0 2 .1 2.9.3.5-1.3.8-2.7.8-4.1h-3.7v3.8zm-4.7-3.8c0 1.4.3 2.8.8 4l2.9-.2v-3.8h-3.7zm9.4-1H33a9 9 0 00-2.3-5.5c-.6.5-1.4.8-2.4 1.1.6 1.4.9 2.9 1 4.4zm-4.7 0h3.7a12 12 0 00-.8-4.1c-1 .2-1.9.3-2.9.3v3.8zm-4.7 0h3.7v-3.8c-1 0-2-.1-2.9-.3a12 12 0 00-.8 4.1zm-4.8 0h3.8c0-1.5.3-3 .9-4.3-1-.3-1.8-.7-2.4-1.2a9 9 0 00-2.3 5.5zm6-5l2.5.2V7.5c-1 .8-1.8 1.8-2.4 3zm3.5-3v3.2c.9 0 1.7 0 2.4-.2a9.6 9.6 0 00-2.4-3zM18 9.3c.5.4 1.2.7 2 1C20.8 9 21.5 8 22.5 7A9 9 0 0018 9.4zM25.6 7c1 1 1.7 2 2.3 3.1.9-.2 1.6-.5 2-1a9 9 0 00-4.3-2z"/>
</svg>
