<svg xmlns="http://www.w3.org/2000/svg" fill="none" viewBox="0 0 48 33">
  <path fill="#fff" d="M0 4a4 4 0 014-4h40a4 4 0 014 4v25a4 4 0 01-4 4H4a4 4 0 01-4-4V4z"/>
  <path fill="#000" d="M11.8 13.7L16.2 7l-4.4-3-4.4 6.7 4.4 3z"/>
  <path fill="#fff" d="M8.6 12.4l5.2-7.8-.5-.4L8 12l.5.4zM10.3 13.5l5.2-7.8-.6-.4-5.1 7.8.5.4z"/>
  <path fill="#000" d="M36.2 30l4.4-6.7-4.4-3-4.4 6.7 4.4 3z"/>
  <path fill="#fff" d="M33 28.6l5.2-7.7-.5-.4-5.2 7.8.6.3zM34.7 29.8L40 22l-.6-.4-5.1 7.8.5.4z"/>
  <path fill="#fff" d="M38.8 27.3l.4-.6-5.6-3.7-.4.6 5.6 3.7z"/>
  <path fill="#C60C30" d="M24 25a8 8 0 100-16 8 8 0 000 16z"/>
  <path fill="#003478" d="M17.3 13a3.8 3.8 0 001.1 5.4 4 4 0 005.4-1.1 4 4 0 015.5-1 3.8 3.8 0 011 5.3 7.9 7.9 0 01-10.8 2.1A7.7 7.7 0 0117.3 13z"/>
  <path fill="#000" d="M16.2 27l-4.4-6.7-4.4 3 4.4 6.6 4.4-3z"/>
  <path fill="#fff" d="M13.8 29.4l-5.2-7.8-.5.4 5.2 7.8.5-.4zM15.5 28.3l-5.2-7.8-.5.4 5.1 7.7.6-.3z"/>
  <path fill="#000" d="M40.6 10.7l-4.4-6.6-4.4 3 4.4 6.6 4.4-3z"/>
  <path fill="#fff" d="M38.2 13.1l-5.1-7.8-.6.4 5.2 7.8.5-.4zM39.9 12l-5.2-7.8-.5.4 5.1 7.8.6-.4z"/>
  <path fill="#fff" d="M39.2 7.3l-.4-.6-5.6 3.7.4.6 5.6-3.7z"/>
  <path fill="#000" d="M37.1 9l-.7-1-1.1.7.7 1 1.1-.7z"/>
  <path fill="#fff" d="M13 24.7l-.3-.6-2.2 1.5.4.6 2.2-1.5z"/>
</svg>
